<svg xmlns="http://www.w3.org/2000/svg" viewBox="0 0 74.8 38.55"><defs><style>.cls-1{fill:#09f;}.cls-2{fill:#ffd800;}</style></defs><title>Simbolo</title><g id="Layer_2" data-name="Layer 2"><g id="Layer_1-2" data-name="Layer 1"><path class="cls-1" d="M33,0a5.43,5.43,0,0,0-5.43,5.43,8.36,8.36,0,0,1-16.72,0A5.43,5.43,0,0,0,0,5.43a19.22,19.22,0,0,0,38.44,0A5.43,5.43,0,0,0,33,0Z"/><path class="cls-1" d="M22.29,27.69H16.15a5.43,5.43,0,1,0,0,10.86h6.14a5.43,5.43,0,1,0,0-10.86Z"/><path class="cls-1" d="M55.58,13.9A19.24,19.24,0,0,0,36.36,33.12a5.43,5.43,0,0,0,10.86,0,8.36,8.36,0,0,1,16.72,0,5.43,5.43,0,1,0,10.86,0A19.24,19.24,0,0,0,55.58,13.9Z"/><path class="cls-2" d="M52.51,10.86h6.13A5.43,5.43,0,0,0,58.64,0H52.51a5.43,5.43,0,0,0,0,10.86Z"/></g></g></svg>